<svg width="195" height="183" viewBox="0 0 195 183" fill="none" xmlns="http://www.w3.org/2000/svg">
<path d="M49.557 118.156V56.1392C49.3453 51.4028 47.7152 48.3791 44.5822 47.5122H106.227L107.518 56.4564C103.856 51.4874 99.8548 49.1192 91.7471 48.802H62.1949V82.8871H69.583C73.9015 82.8871 78.0083 82.5699 81.5647 78.2564V88.723C78.0083 84.4095 73.9015 84.0923 69.583 84.0923H62.1949V125.599H93.9487C101.718 124.732 107.328 122.364 111.54 117.184L108.831 126.889H44.5822C47.7152 125.916 49.3453 122.914 49.557 118.156Z" fill="url(#paint0_linear_100_4854)"/>
<path d="M145.093 88.4485C145.347 84.7693 146.385 82.1262 148.29 80.7307C148.099 80.4558 147.994 80.1598 147.93 79.8215H138.51C141.643 80.6884 143.252 83.7121 143.59 88.4485V131.308L100.067 69.7144C97.0394 64.978 96.4043 61.9543 98.8811 61.0874H81.2896L86.2643 68.1074V126.17H87.8943V70.2641L131.376 131.731C134.403 136.468 134.932 139.491 132.561 140.464H150.153L145.072 133.444V88.4485H145.093Z" fill="url(#paint1_linear_100_4854)"/>
<path d="M45.8312 92.9736H0V94.5383H45.8312V92.9736Z" fill="url(#paint2_linear_100_4854)"/>
<path d="M194.756 93.1631H148.925V94.7278H194.756V93.1631Z" fill="url(#paint3_linear_100_4854)"/>
<path d="M11.3042 62.5454C10.0552 62.0168 9.44128 60.4944 10.3516 58.2531C10.9231 56.8998 11.8122 56.4346 12.0663 55.8214C12.2144 55.462 12.1721 55.1025 11.9392 54.8276L14.5007 55.8849C12.5531 55.61 11.0713 56.9632 10.4786 58.4011C9.99168 59.6063 10.1187 60.8538 11.1136 61.2767C13.3999 62.1437 14.7759 55.7369 17.6337 56.9421C18.9039 57.4707 19.4966 58.9931 18.5864 61.2344C17.9724 62.7357 17.1257 63.1163 16.8505 63.7929C16.7023 64.1524 16.7446 64.5118 16.9775 64.7867L14.416 63.7295C16.4059 63.9832 17.8666 62.6088 18.4593 61.171C18.9674 59.9446 18.8404 58.6548 17.8666 58.2319C15.5592 57.1958 14.1832 63.7506 11.3042 62.5454Z" fill="url(#paint4_linear_100_4854)"/>
<path d="M22.1429 53.0942C22.2487 52.7136 22.1429 52.2696 21.8677 51.7833L17.3586 44.8056L17.4433 44.6787L25.7205 45.5245C26.292 45.5456 26.7366 45.4399 27.0118 45.1862L25.7628 47.2161C25.8263 46.92 25.5511 46.7509 25.0219 46.6452L23.6459 46.5183L21.1903 50.4935L21.9523 51.6564C22.2699 52.1005 22.5451 52.2696 22.7779 52.0793L22.1429 53.0942ZM21.1268 50.3666L23.4977 46.4971L18.2689 45.9474L21.1268 50.3666Z" fill="url(#paint5_linear_100_4854)"/>
<path d="M24.789 32.5837L25.0219 32.3299C25.2336 32.6048 25.5723 32.5202 25.7416 32.3088C25.911 32.0973 25.9533 31.7802 25.6358 31.611L25.8686 31.3361C25.911 31.3573 25.9745 31.3996 25.9956 31.4207C26.2497 31.6322 26.1015 32.0762 25.8263 32.3934C25.5511 32.7105 25.1489 32.922 24.8948 32.7105C24.8737 32.6682 24.8102 32.626 24.789 32.5837ZM26.0592 32.6048C27.1176 31.3784 28.0914 31.2516 28.5571 30.7018C28.8111 30.4058 28.8958 30.0463 28.7476 29.708L30.8434 31.5053C29.1922 30.7864 27.3716 31.3361 26.3767 32.5202C23.5189 35.9457 29.7849 41.2952 32.7274 37.9544C33.2778 37.3412 33.6165 36.5166 33.6377 35.6285L31.1397 33.4929L29.2769 35.6708L29.171 35.5862L32.2405 32.0128C32.0924 32.3299 32.2405 32.6682 32.6004 33.0066L35.1619 35.2056L33.9764 35.9245C33.7012 36.4954 33.553 37.3201 32.7063 38.2927C28.79 42.7331 22.2064 37.0875 26.0592 32.6048Z" fill="url(#paint6_linear_100_4854)"/>
<path d="M36.3473 22.519C36.1568 22.7939 36.2415 23.1534 36.5379 23.5551L41.2797 29.2007L43.8624 27.044C44.4339 26.4519 44.7303 25.8599 44.7091 25.1621L45.1537 26.1348L39.9249 30.5117C40.1154 30.2157 40.0308 29.8562 39.7344 29.4545L35.5006 24.4221C35.1619 24.0415 34.8232 23.9146 34.5056 24.0626L36.3473 22.519Z" fill="url(#paint7_linear_100_4854)"/>
<path d="M47.7151 14.1885C47.4822 14.4422 47.5246 14.8017 47.7574 15.2457L51.3139 20.7856C51.6102 21.1873 51.9278 21.3776 52.2665 21.2719L50.2554 22.5617C50.4883 22.2868 50.4459 21.9274 50.1919 21.5045L46.6355 15.9646C46.3391 15.5629 46.0216 15.3726 45.704 15.4783L47.7151 14.1885Z" fill="url(#paint8_linear_100_4854)"/>
<path d="M57.834 17.0006L55.0397 11.0378C54.8068 10.5938 54.5105 10.3823 54.1718 10.4246L56.331 9.40966C56.077 9.64225 56.0558 10.0017 56.2463 10.4669L58.3844 15.013L59.6122 8.88104C59.7181 8.28899 59.6334 7.95068 59.3582 7.99297L60.459 7.46436C60.1415 7.71809 59.9086 8.18327 59.7604 8.79646L59.1888 11.6298L63.3803 14.3575C63.9096 14.6747 64.3753 14.8015 64.7775 14.7381L62.6182 15.753C62.8299 15.5416 62.6606 15.2667 62.1949 14.9284L58.956 12.8351L58.4691 15.2244L59.0407 16.4296C59.2947 16.8737 59.5699 17.0851 59.9086 17.0428L57.7493 18.0578C58.0034 17.8252 58.0245 17.4657 57.834 17.0006Z" fill="url(#paint9_linear_100_4854)"/>
<path d="M70.2391 3.99609C69.9427 4.18639 69.8792 4.52471 69.9851 5.03218L72.0385 12.1156L75.2774 11.1852C76.0394 10.8681 76.5475 10.4663 76.8227 9.81085L76.8439 10.8892L70.3026 12.7922C70.599 12.6019 70.6625 12.2425 70.5566 11.7561L68.7361 5.43392C68.5667 4.9476 68.3127 4.69386 67.974 4.69386L70.2391 3.99609Z" fill="url(#paint10_linear_100_4854)"/>
<path d="M84.0414 0.951172C83.7239 1.09918 83.618 1.4375 83.6604 1.94497L84.6765 8.43635C84.7823 8.92267 84.994 9.2187 85.3327 9.26099L82.9618 9.62044C83.2793 9.47243 83.3852 9.13412 83.3428 8.62665L82.3267 2.13527C82.2209 1.64894 82.0092 1.35292 81.6705 1.31063L84.0414 0.951172Z" fill="url(#paint11_linear_100_4854)"/>
<path d="M105.549 0.359457C108.831 0.634337 108.936 3.72144 106.354 4.18662C110.27 4.52494 109.889 9.17674 105.952 8.83843L100.617 8.39439C100.956 8.30981 101.146 8.01379 101.21 7.50632L101.76 0.951505C101.781 0.444036 101.633 0.105723 101.315 0L105.549 0.359457ZM102.48 8.41553L105.761 8.69041C108.153 8.90186 108.513 4.50379 106.142 4.29235L102.84 4.01747L102.48 8.41553ZM102.861 3.8906L105.316 4.0809C107.179 4.14433 107.455 0.655481 105.549 0.486325L103.157 0.274879L102.861 3.8906Z" fill="url(#paint12_linear_100_4854)"/>
<path d="M115.351 9.32491L116.938 2.93926C117.044 2.45293 116.938 2.09347 116.642 1.92432L122.993 3.48901L122.887 4.44052C122.633 3.82733 122.294 3.48901 121.468 3.25642L118.42 2.49522L117.552 6.00522L119.944 6.59726C120.389 6.70299 120.812 6.78757 121.299 6.42811L121.024 7.50648C120.77 6.97787 120.347 6.82985 119.902 6.72413L117.51 6.13208L116.451 10.4033L119.711 11.2068C120.537 11.3125 121.172 11.2068 121.744 10.7839L121.214 11.7142L114.589 10.065C114.948 10.065 115.202 9.81124 115.351 9.32491Z" fill="url(#paint13_linear_100_4854)"/>
<path d="M129.724 8.18281C130.275 6.93528 131.799 6.36438 134.043 7.29474C135.377 7.88679 135.842 8.77486 136.456 9.02859C136.816 9.17661 137.176 9.15546 137.451 8.90173L136.372 11.4391C136.668 9.49377 135.334 7.99251 133.916 7.40046C132.73 6.89299 131.46 6.99872 131.037 7.99251C130.148 10.255 136.541 11.714 135.292 14.5685C134.742 15.8371 133.217 16.3869 130.973 15.4565C129.492 14.8433 129.111 13.9764 128.454 13.6804C128.094 13.5324 127.735 13.5747 127.459 13.8073L128.539 11.2699C128.264 13.2364 129.619 14.7165 131.058 15.3508C132.286 15.8794 133.577 15.7737 134.001 14.7799C135.017 12.4963 128.475 11.0373 129.724 8.18281Z" fill="url(#paint14_linear_100_4854)"/>
<path d="M146.533 13.8914C146.194 13.7857 145.898 13.976 145.601 14.3777L141.664 20.6154L144.522 22.4126C145.263 22.7721 145.898 22.8778 146.575 22.6452L145.792 23.3641L140.034 19.7273C140.372 19.8119 140.69 19.6427 140.965 19.2198L144.479 13.6588C144.733 13.2148 144.754 12.8553 144.522 12.6016L146.533 13.8914Z" fill="url(#paint15_linear_100_4854)"/>
<path d="M151.74 26.6843L156.059 21.7153C156.376 21.3135 156.461 20.9752 156.27 20.6792L161.203 24.9715L160.674 25.775C160.716 25.1196 160.568 24.6544 159.954 24.0623L157.583 22.0113L155.212 24.739L157.075 26.3671C157.414 26.6631 157.774 26.9168 158.366 26.8323L157.646 27.678C157.668 27.086 157.35 26.7688 157.011 26.4728L155.149 24.8447L152.248 28.1644L154.789 30.3634C155.466 30.8286 156.08 31.04 156.779 30.9132L155.889 31.5052L150.724 27.0437C151.042 27.1706 151.38 27.0437 151.74 26.6843Z" fill="url(#paint16_linear_100_4854)"/>
<path d="M161.372 35.7766L166.538 31.4208L166.771 30.5327L167.977 31.9494C167.744 31.8014 167.533 32.0763 167.363 32.6472L165.331 40.3861L170.327 36.1783C170.687 35.8189 170.814 35.4805 170.687 35.1845L171.491 36.136C171.216 35.9457 170.856 36.0092 170.454 36.3052L165.289 40.661L165.077 41.549L163.87 40.1323C164.103 40.2592 164.315 40.0055 164.505 39.4346L166.516 31.6957L161.521 35.9034C161.161 36.2629 161.013 36.5801 161.161 36.8972L160.377 35.9669C160.631 36.1572 160.991 36.0937 161.372 35.7766Z" fill="url(#paint17_linear_100_4854)"/>
<path d="M176 42.3315L176.953 43.9385C176.72 43.7482 176.445 43.8962 176.127 44.3403L172.359 50.0916L180.17 49.4361L180.763 50.4722C180.509 50.2396 180.149 50.2396 179.705 50.4722L174.031 53.7919C173.608 54.0668 173.417 54.3839 173.502 54.7223L172.295 52.6501C172.55 52.8827 172.909 52.8615 173.354 52.6289L178.308 49.7321L170.919 50.3453L170.835 50.1973L175.132 43.6214L169.861 46.7296C169.459 47.0045 169.268 47.3005 169.332 47.6388L168.718 46.5816C168.972 46.8142 169.332 46.793 169.776 46.5816L175.344 43.3253L176 42.3315Z" fill="url(#paint18_linear_100_4854)"/>
<path d="M177.101 60.4948L183.261 58.1689C183.727 57.9786 183.96 57.7037 183.939 57.3442L186.246 63.455L185.399 63.9202C185.759 63.3704 185.844 62.8841 185.569 62.0806L184.468 59.1415L181.081 60.4102L181.949 62.715C182.118 63.1378 182.287 63.5396 182.859 63.7299L181.822 64.1316C182.118 63.6242 181.991 63.2013 181.843 62.7784L180.975 60.4736L176.847 62.0383L178.032 65.1889C178.413 65.9289 178.858 66.3941 179.535 66.6267L178.477 66.7324L176.064 60.3679C176.275 60.6005 176.635 60.6428 177.101 60.4948Z" fill="url(#paint19_linear_100_4854)"/>
<path d="M38.93 146.807C43.2061 151.733 36.8554 157.252 32.558 152.326L29.9966 149.386C30.293 149.577 30.6528 149.492 31.0339 149.175L36.0086 144.861C36.3685 144.523 36.4955 144.185 36.3473 143.868L38.93 146.807ZM31.3302 150.676L32.7274 152.283C35.7546 155.772 41.9148 150.444 38.8876 146.955L37.4905 145.348L31.3302 150.676Z" fill="url(#paint20_linear_100_4854)"/>
<path d="M39.819 159.959C40.1788 160.107 40.6234 160.065 41.1526 159.853L48.6888 156.322L48.8159 156.428L46.8895 164.505C46.7836 165.076 46.826 165.52 47.0588 165.837L45.1959 164.336C45.4923 164.442 45.704 164.188 45.8522 163.681L46.1697 162.327L42.5498 159.367L41.3008 159.959C40.8139 160.213 40.6234 160.467 40.7716 160.72L39.819 159.959ZM42.6768 159.325L46.212 162.2L47.4399 157.083L42.6768 159.325Z" fill="url(#paint21_linear_100_4854)"/>
<path d="M53.9177 169.115L57.2412 163.258L57.1565 162.349L58.7866 163.279C58.5114 163.237 58.4055 163.533 58.4479 164.146L59.2523 172.096L62.47 166.43C62.6817 165.985 62.7029 165.605 62.4488 165.372L63.5285 165.985C63.1898 165.901 62.8934 166.091 62.6182 166.514L59.2946 172.392L59.4005 173.302L57.7705 172.371C58.0457 172.413 58.1515 172.096 58.1092 171.504L57.3047 163.575L54.087 169.242C53.8753 169.707 53.8542 170.045 54.087 170.299L53.0286 169.686C53.3249 169.728 53.6425 169.538 53.9177 169.115Z" fill="url(#paint22_linear_100_4854)"/>
<path d="M71.2764 169.094C70.9377 169.051 70.6625 169.305 70.4508 169.77L68.1222 175.923C67.974 176.41 68.0163 176.769 68.2915 176.981L66.0476 176.135C66.3863 176.156 66.6615 175.923 66.8732 175.458L69.2018 169.305C69.35 168.819 69.3077 168.459 69.0325 168.269L71.2764 169.094Z" fill="url(#paint23_linear_100_4854)"/>
<path d="M76.6745 173.343C76.9709 172.011 78.368 171.165 80.7602 171.652C82.1785 171.99 82.8136 172.772 83.4698 172.899C83.8508 172.984 84.1896 172.878 84.4224 172.603L83.8297 175.288C83.745 173.322 82.1573 172.096 80.6543 171.778C79.3842 171.504 78.1775 171.842 77.9447 172.899C77.5001 175.288 84.0625 175.521 83.364 178.545C83.0676 179.877 81.6704 180.723 79.2995 180.236C77.7118 179.898 77.2037 179.116 76.484 178.968C76.1029 178.883 75.7642 178.989 75.5314 179.264L76.1241 176.557C76.23 178.545 77.8388 179.75 79.363 180.088C80.6543 180.363 81.9033 180.025 82.1573 178.989C82.6865 176.599 75.9971 176.388 76.6745 173.343Z" fill="url(#paint24_linear_100_4854)"/>
<path d="M90.625 173.47L92.4878 173.512C92.1915 173.597 92.1915 173.914 92.4032 174.421L95.3033 180.638L98.8597 173.681L100.045 173.702C99.7065 173.787 99.5372 174.104 99.4948 174.612L99.3255 181.187C99.3466 181.695 99.4948 182.012 99.8335 182.118L97.4414 182.054C97.7801 181.97 97.9495 181.653 97.9918 181.145L98.14 175.415L94.7741 181.991H94.6047L91.26 174.886L91.1118 180.976C91.133 181.462 91.2812 181.801 91.6199 181.906L90.3921 181.885C90.7308 181.801 90.9002 181.484 90.9425 180.976L91.0907 174.548L90.625 173.47Z" fill="url(#paint25_linear_100_4854)"/>
<path d="M106.946 181.59C107.306 181.421 107.56 181.062 107.751 180.512L110.058 172.519L110.206 172.498L115.012 179.264C115.372 179.708 115.732 179.983 116.134 180.004L113.763 180.406C114.038 180.258 113.996 179.941 113.699 179.476L112.895 178.355L108.28 179.137L107.899 180.47C107.772 180.998 107.836 181.315 108.132 181.379L106.946 181.59ZM108.344 179.011L112.831 178.249L109.783 173.978L108.344 179.011Z" fill="url(#paint26_linear_100_4854)"/>
<path d="M123.12 177.065L120.812 170.721L120.071 170.193L121.828 169.558C121.617 169.727 121.786 170.002 122.252 170.383L128.814 174.95L126.591 168.818C126.38 168.353 126.126 168.12 125.766 168.142L126.93 167.719C126.655 167.909 126.591 168.269 126.74 168.755L129.047 175.098L129.809 175.606L128.052 176.24C128.264 176.05 128.094 175.775 127.607 175.415L121.045 170.869L123.268 177.001C123.48 177.466 123.734 177.699 124.072 177.699L122.929 178.122C123.225 177.91 123.268 177.551 123.12 177.065Z" fill="url(#paint27_linear_100_4854)"/>
<path d="M134.466 163.998C134.212 164.251 134.233 164.59 134.466 165.055L138.107 171.462L141.029 169.791C141.706 169.305 142.087 168.797 142.214 168.1L142.468 169.136L136.541 172.498C136.774 172.244 136.774 171.884 136.541 171.44L133.281 165.731C133.006 165.309 132.709 165.118 132.371 165.203L134.466 163.998Z" fill="url(#paint28_linear_100_4854)"/>
<path d="M145.136 156.914C144.924 157.189 144.987 157.548 145.284 157.95L149.285 163.152C149.623 163.532 149.941 163.68 150.258 163.575L148.353 165.034C148.544 164.759 148.501 164.399 148.205 163.976L144.204 158.775C143.887 158.394 143.548 158.246 143.23 158.373L145.136 156.914Z" fill="url(#paint29_linear_100_4854)"/>
<path d="M152.778 149.725C153.9 148.541 154.873 148.477 155.381 147.949C155.657 147.674 155.741 147.314 155.614 146.976L157.604 148.879C155.995 148.076 154.154 148.52 153.095 149.661C150.068 152.939 156.016 158.606 159.128 155.413C159.7 154.821 160.081 154.017 160.166 153.15L157.773 150.888L155.805 152.96L155.699 152.875L158.959 149.471C158.811 149.788 158.917 150.127 159.255 150.486L161.69 152.812L160.462 153.467C160.166 154.038 159.954 154.842 159.065 155.751C154.958 160.001 148.692 154.017 152.778 149.725ZM151.507 149.661L151.74 149.408C151.931 149.704 152.269 149.64 152.46 149.429C152.651 149.239 152.693 148.921 152.397 148.731L152.651 148.456C152.693 148.477 152.756 148.52 152.778 148.541C153.01 148.773 152.841 149.196 152.566 149.492C152.269 149.788 151.867 149.979 151.613 149.767C151.592 149.746 151.55 149.683 151.507 149.661Z" fill="url(#paint30_linear_100_4854)"/>
<path d="M160.949 139.872C160.843 140.189 161.012 140.506 161.393 140.823L166.791 144.587C167.215 144.841 167.575 144.904 167.85 144.693L166.474 146.659C166.58 146.321 166.41 146.003 166.008 145.707L160.61 141.944C160.187 141.669 159.827 141.627 159.552 141.859L160.949 139.872Z" fill="url(#paint31_linear_100_4854)"/>
<path d="M46.5933 131.095V132.258H48.3926V132.618H46.5933V133.76H48.5832V134.119H46.191V130.715H48.5832V131.074H46.5933V131.095Z" fill="url(#paint32_linear_100_4854)"/>
<path d="M53.1345 133.782V134.141H50.8483V130.737H51.2505V133.782H53.1345Z" fill="url(#paint33_linear_100_4854)"/>
<path d="M55.188 130.018C55.188 129.87 55.315 129.743 55.4632 129.743C55.6114 129.743 55.7384 129.848 55.7384 130.018C55.7384 130.166 55.6114 130.271 55.4632 130.271C55.315 130.292 55.188 130.166 55.188 130.018ZM55.6537 130.736V134.141H55.2515V130.736H55.6537Z" fill="url(#paint34_linear_100_4854)"/>
<path d="M58.4903 131.095V132.343H60.2262V132.702H58.4903V134.119H58.0881V130.715H60.4378V131.074H58.4903V131.095Z" fill="url(#paint35_linear_100_4854)"/>
<path d="M68.3552 130.737V134.141H68.0165L65.8361 131.456V134.141H65.4338V130.737H65.7514L67.953 133.464V130.737H68.3552Z" fill="url(#paint36_linear_100_4854)"/>
<path d="M70.7261 130.018C70.7261 129.87 70.8531 129.743 71.0013 129.743C71.1495 129.743 71.2765 129.848 71.2765 130.018C71.2765 130.166 71.1495 130.271 71.0013 130.271C70.8531 130.292 70.7261 130.166 70.7261 130.018ZM71.1918 130.736V134.141H70.7896V130.736H71.1918Z" fill="url(#paint37_linear_100_4854)"/>
<path d="M76.6323 132.407C76.6323 133.422 75.8914 134.141 74.8329 134.141H73.6263V130.737H74.8329C75.8702 130.737 76.6323 131.435 76.6323 132.407ZM76.2301 132.407C76.2301 131.646 75.6374 131.096 74.8329 131.096H74.0285V133.782H74.8329C75.6374 133.782 76.2301 133.211 76.2301 132.407Z" fill="url(#paint38_linear_100_4854)"/>
<path d="M80.972 133.19H79.2149L78.7915 134.141H78.3682L79.9135 130.737H80.2946L81.8399 134.141H81.4165L80.972 133.19ZM80.8238 132.83L80.104 131.202L79.3843 132.83H80.8238Z" fill="url(#paint39_linear_100_4854)"/>
<path d="M89.3125 133.782V134.141H86.624V133.93L88.7198 131.096H86.6875V130.737H89.2913V130.927L87.2379 133.782H89.3125Z" fill="url(#paint40_linear_100_4854)"/>
<path d="M93.8851 133.19H92.1281L91.7047 134.141H91.2813L92.8267 130.737H93.2077L94.753 134.141H94.3297L93.8851 133.19ZM93.7158 132.83L92.996 131.202L92.2763 132.83H93.7158Z" fill="url(#paint41_linear_100_4854)"/>
<path d="M97.2511 131.095V132.343H98.987V132.702H97.2511V134.119H96.8489V130.715H99.1987V131.074H97.2511V131.095Z" fill="url(#paint42_linear_100_4854)"/>
<path d="M101.739 131.095V132.258H103.538V132.618H101.739V133.76H103.729V134.119H101.337V130.715H103.729V131.074H101.739V131.095Z" fill="url(#paint43_linear_100_4854)"/>
<path d="M107.285 132.915H106.417V134.141H106.015V130.737H107.306C108.068 130.737 108.619 131.16 108.619 131.836C108.619 132.386 108.28 132.767 107.751 132.894L108.788 134.162H108.301L107.285 132.915ZM106.417 132.555H107.306C107.836 132.555 108.238 132.28 108.238 131.815C108.238 131.35 107.857 131.096 107.306 131.096H106.417V132.555Z" fill="url(#paint44_linear_100_4854)"/>
<path d="M76.2937 180.617C76.621 180.617 76.8864 180.352 76.8864 180.025C76.8864 179.698 76.621 179.433 76.2937 179.433C75.9663 179.433 75.7009 179.698 75.7009 180.025C75.7009 180.352 75.9663 180.617 76.2937 180.617Z" fill="url(#paint45_linear_100_4854)"/>
<defs>
<linearGradient id="paint0_linear_100_4854" x1="19.8996" y1="13.1627" x2="163.433" y2="205.05" gradientUnits="userSpaceOnUse">
<stop stop-color="#358C9C"/>
<stop offset="1" stop-color="#365964"/>
</linearGradient>
<linearGradient id="paint1_linear_100_4854" x1="39.0221" y1="-1.14072" x2="182.556" y2="190.747" gradientUnits="userSpaceOnUse">
<stop stop-color="#358C9C"/>
<stop offset="1" stop-color="#365964"/>
</linearGradient>
<linearGradient id="paint2_linear_100_4854" x1="-16.886" y1="40.6793" x2="126.647" y2="232.567" gradientUnits="userSpaceOnUse">
<stop stop-color="#358C9C"/>
<stop offset="1" stop-color="#365964"/>
</linearGradient>
<linearGradient id="paint3_linear_100_4854" x1="78.4411" y1="-30.627" x2="221.974" y2="161.26" gradientUnits="userSpaceOnUse">
<stop stop-color="#358C9C"/>
<stop offset="1" stop-color="#365964"/>
</linearGradient>
<linearGradient id="paint4_linear_100_4854" x1="-5.94489" y1="32.4939" x2="137.589" y2="224.381" gradientUnits="userSpaceOnUse">
<stop stop-color="#358C9C"/>
<stop offset="1" stop-color="#365964"/>
</linearGradient>
<linearGradient id="paint5_linear_100_4854" x1="5.61553" y1="23.8472" x2="149.149" y2="215.735" gradientUnits="userSpaceOnUse">
<stop stop-color="#358C9C"/>
<stop offset="1" stop-color="#365964"/>
</linearGradient>
<linearGradient id="paint6_linear_100_4854" x1="15.393" y1="16.5331" x2="158.927" y2="208.421" gradientUnits="userSpaceOnUse">
<stop stop-color="#358C9C"/>
<stop offset="1" stop-color="#365964"/>
</linearGradient>
<linearGradient id="paint7_linear_100_4854" x1="27.0339" y1="7.82577" x2="170.568" y2="199.713" gradientUnits="userSpaceOnUse">
<stop stop-color="#358C9C"/>
<stop offset="1" stop-color="#365964"/>
</linearGradient>
<linearGradient id="paint8_linear_100_4854" x1="36.0389" y1="1.09035" x2="179.572" y2="192.978" gradientUnits="userSpaceOnUse">
<stop stop-color="#358C9C"/>
<stop offset="1" stop-color="#365964"/>
</linearGradient>
<linearGradient id="paint9_linear_100_4854" x1="45.1996" y1="-5.76205" x2="188.733" y2="186.125" gradientUnits="userSpaceOnUse">
<stop stop-color="#358C9C"/>
<stop offset="1" stop-color="#365964"/>
</linearGradient>
<linearGradient id="paint10_linear_100_4854" x1="55.1867" y1="-13.2331" x2="198.72" y2="178.654" gradientUnits="userSpaceOnUse">
<stop stop-color="#358C9C"/>
<stop offset="1" stop-color="#365964"/>
</linearGradient>
<linearGradient id="paint11_linear_100_4854" x1="64.4217" y1="-20.141" x2="207.955" y2="171.747" gradientUnits="userSpaceOnUse">
<stop stop-color="#358C9C"/>
<stop offset="1" stop-color="#365964"/>
</linearGradient>
<linearGradient id="paint12_linear_100_4854" x1="77.8866" y1="-30.2126" x2="221.42" y2="161.675" gradientUnits="userSpaceOnUse">
<stop stop-color="#358C9C"/>
<stop offset="1" stop-color="#365964"/>
</linearGradient>
<linearGradient id="paint13_linear_100_4854" x1="86.322" y1="-36.5221" x2="229.856" y2="155.365" gradientUnits="userSpaceOnUse">
<stop stop-color="#358C9C"/>
<stop offset="1" stop-color="#365964"/>
</linearGradient>
<linearGradient id="paint14_linear_100_4854" x1="92.8851" y1="-41.4317" x2="236.419" y2="150.456" gradientUnits="userSpaceOnUse">
<stop stop-color="#358C9C"/>
<stop offset="1" stop-color="#365964"/>
</linearGradient>
<linearGradient id="paint15_linear_100_4854" x1="97.1849" y1="-44.6485" x2="240.718" y2="147.239" gradientUnits="userSpaceOnUse">
<stop stop-color="#358C9C"/>
<stop offset="1" stop-color="#365964"/>
</linearGradient>
<linearGradient id="paint16_linear_100_4854" x1="100.907" y1="-47.4321" x2="244.44" y2="144.455" gradientUnits="userSpaceOnUse">
<stop stop-color="#358C9C"/>
<stop offset="1" stop-color="#365964"/>
</linearGradient>
<linearGradient id="paint17_linear_100_4854" x1="102.453" y1="-48.5885" x2="245.987" y2="143.299" gradientUnits="userSpaceOnUse">
<stop stop-color="#358C9C"/>
<stop offset="1" stop-color="#365964"/>
</linearGradient>
<linearGradient id="paint18_linear_100_4854" x1="102.121" y1="-48.34" x2="245.654" y2="143.547" gradientUnits="userSpaceOnUse">
<stop stop-color="#358C9C"/>
<stop offset="1" stop-color="#365964"/>
</linearGradient>
<linearGradient id="paint19_linear_100_4854" x1="99.775" y1="-46.5851" x2="243.309" y2="145.302" gradientUnits="userSpaceOnUse">
<stop stop-color="#358C9C"/>
<stop offset="1" stop-color="#365964"/>
</linearGradient>
<linearGradient id="paint20_linear_100_4854" x1="-35.5687" y1="54.6531" x2="107.965" y2="246.541" gradientUnits="userSpaceOnUse">
<stop stop-color="#358C9C"/>
<stop offset="1" stop-color="#365964"/>
</linearGradient>
<linearGradient id="paint21_linear_100_4854" x1="-34.1169" y1="53.5675" x2="109.417" y2="245.455" gradientUnits="userSpaceOnUse">
<stop stop-color="#358C9C"/>
<stop offset="1" stop-color="#365964"/>
</linearGradient>
<linearGradient id="paint22_linear_100_4854" x1="-29.8095" y1="50.3458" x2="113.724" y2="242.233" gradientUnits="userSpaceOnUse">
<stop stop-color="#358C9C"/>
<stop offset="1" stop-color="#365964"/>
</linearGradient>
<linearGradient id="paint23_linear_100_4854" x1="-25.4474" y1="47.0828" x2="118.086" y2="238.97" gradientUnits="userSpaceOnUse">
<stop stop-color="#358C9C"/>
<stop offset="1" stop-color="#365964"/>
</linearGradient>
<linearGradient id="paint24_linear_100_4854" x1="-19.8206" y1="42.8731" x2="123.713" y2="234.761" gradientUnits="userSpaceOnUse">
<stop stop-color="#358C9C"/>
<stop offset="1" stop-color="#365964"/>
</linearGradient>
<linearGradient id="paint25_linear_100_4854" x1="-10.9027" y1="36.2025" x2="132.631" y2="228.09" gradientUnits="userSpaceOnUse">
<stop stop-color="#358C9C"/>
<stop offset="1" stop-color="#365964"/>
</linearGradient>
<linearGradient id="paint26_linear_100_4854" x1="-1.91562" y1="29.481" x2="141.618" y2="221.368" gradientUnits="userSpaceOnUse">
<stop stop-color="#358C9C"/>
<stop offset="1" stop-color="#365964"/>
</linearGradient>
<linearGradient id="paint27_linear_100_4854" x1="10.4556" y1="20.2265" x2="153.989" y2="212.114" gradientUnits="userSpaceOnUse">
<stop stop-color="#358C9C"/>
<stop offset="1" stop-color="#365964"/>
</linearGradient>
<linearGradient id="paint28_linear_100_4854" x1="20.9642" y1="12.3662" x2="164.498" y2="204.254" gradientUnits="userSpaceOnUse">
<stop stop-color="#358C9C"/>
<stop offset="1" stop-color="#365964"/>
</linearGradient>
<linearGradient id="paint29_linear_100_4854" x1="30.1691" y1="5.48074" x2="173.703" y2="197.368" gradientUnits="userSpaceOnUse">
<stop stop-color="#358C9C"/>
<stop offset="1" stop-color="#365964"/>
</linearGradient>
<linearGradient id="paint30_linear_100_4854" x1="40.0626" y1="-1.91962" x2="183.596" y2="189.968" gradientUnits="userSpaceOnUse">
<stop stop-color="#358C9C"/>
<stop offset="1" stop-color="#365964"/>
</linearGradient>
<linearGradient id="paint31_linear_100_4854" x1="49.5378" y1="-9.00706" x2="193.071" y2="182.88" gradientUnits="userSpaceOnUse">
<stop stop-color="#358C9C"/>
<stop offset="1" stop-color="#365964"/>
</linearGradient>
<linearGradient id="paint32_linear_100_4854" x1="-19.7864" y1="42.8471" x2="123.747" y2="234.734" gradientUnits="userSpaceOnUse">
<stop stop-color="#358C9C"/>
<stop offset="1" stop-color="#365964"/>
</linearGradient>
<linearGradient id="paint33_linear_100_4854" x1="-17.4349" y1="41.0886" x2="126.099" y2="232.976" gradientUnits="userSpaceOnUse">
<stop stop-color="#358C9C"/>
<stop offset="1" stop-color="#365964"/>
</linearGradient>
<linearGradient id="paint34_linear_100_4854" x1="-14.3962" y1="38.8159" x2="129.138" y2="230.702" gradientUnits="userSpaceOnUse">
<stop stop-color="#358C9C"/>
<stop offset="1" stop-color="#365964"/>
</linearGradient>
<linearGradient id="paint35_linear_100_4854" x1="-12.1752" y1="37.1538" x2="131.358" y2="229.041" gradientUnits="userSpaceOnUse">
<stop stop-color="#358C9C"/>
<stop offset="1" stop-color="#365964"/>
</linearGradient>
<linearGradient id="paint36_linear_100_4854" x1="-7.28024" y1="33.4929" x2="136.254" y2="225.38" gradientUnits="userSpaceOnUse">
<stop stop-color="#358C9C"/>
<stop offset="1" stop-color="#365964"/>
</linearGradient>
<linearGradient id="paint37_linear_100_4854" x1="-4.44377" y1="31.3707" x2="139.09" y2="223.258" gradientUnits="userSpaceOnUse">
<stop stop-color="#358C9C"/>
<stop offset="1" stop-color="#365964"/>
</linearGradient>
<linearGradient id="paint38_linear_100_4854" x1="-2.27654" y1="29.75" x2="141.257" y2="221.638" gradientUnits="userSpaceOnUse">
<stop stop-color="#358C9C"/>
<stop offset="1" stop-color="#365964"/>
</linearGradient>
<linearGradient id="paint39_linear_100_4854" x1="0.68282" y1="27.5364" x2="144.217" y2="219.424" gradientUnits="userSpaceOnUse">
<stop stop-color="#358C9C"/>
<stop offset="1" stop-color="#365964"/>
</linearGradient>
<linearGradient id="paint40_linear_100_4854" x1="6.21583" y1="23.3977" x2="149.75" y2="215.285" gradientUnits="userSpaceOnUse">
<stop stop-color="#358C9C"/>
<stop offset="1" stop-color="#365964"/>
</linearGradient>
<linearGradient id="paint41_linear_100_4854" x1="8.9484" y1="21.3537" x2="152.482" y2="213.241" gradientUnits="userSpaceOnUse">
<stop stop-color="#358C9C"/>
<stop offset="1" stop-color="#365964"/>
</linearGradient>
<linearGradient id="paint42_linear_100_4854" x1="12.6569" y1="18.5793" x2="156.19" y2="210.467" gradientUnits="userSpaceOnUse">
<stop stop-color="#358C9C"/>
<stop offset="1" stop-color="#365964"/>
</linearGradient>
<linearGradient id="paint43_linear_100_4854" x1="15.552" y1="16.4137" x2="159.085" y2="208.301" gradientUnits="userSpaceOnUse">
<stop stop-color="#358C9C"/>
<stop offset="1" stop-color="#365964"/>
</linearGradient>
<linearGradient id="paint44_linear_100_4854" x1="18.4316" y1="14.2601" x2="161.965" y2="206.148" gradientUnits="userSpaceOnUse">
<stop stop-color="#358C9C"/>
<stop offset="1" stop-color="#365964"/>
</linearGradient>
<linearGradient id="paint45_linear_100_4854" x1="-24.1143" y1="46.0845" x2="119.42" y2="237.972" gradientUnits="userSpaceOnUse">
<stop stop-color="#358C9C"/>
<stop offset="1" stop-color="#365964"/>
</linearGradient>
</defs>
</svg>
