<svg width="176" height="181" viewBox="0 0 176 181" fill="none" xmlns="http://www.w3.org/2000/svg">
<path d="M40.1101 117.09V55.6327C39.9003 50.939 38.285 47.9426 35.1802 47.0835H96.2689L97.5485 55.947C93.9193 51.0228 89.9544 48.676 81.9197 48.3617H52.6341V82.1394H59.9555C64.2351 82.1394 68.3048 81.8251 71.8292 77.5505V87.9226C68.3048 83.6481 64.2351 83.3337 59.9555 83.3337H52.6341V124.466H84.1015C91.8005 123.607 97.3597 121.26 101.534 116.127L98.8492 125.744H35.1802C38.285 124.781 39.9003 121.805 40.1101 117.09Z" fill="url(#paint0_linear_3_4147)"/>
<path d="M134.785 87.65C135.037 84.004 136.065 81.3848 137.953 80.0018C137.764 79.7294 137.659 79.4361 137.596 79.1008H128.261C131.366 79.9599 132.96 82.9563 133.296 87.65V130.124L90.1644 69.0848C87.1645 64.3912 86.5351 61.3948 88.9896 60.5356H71.5566L76.4865 67.4923V125.032H78.1019V69.6296L121.191 130.543C124.191 135.236 124.716 138.233 122.366 139.197H139.799L134.764 132.24V87.65H134.785Z" fill="url(#paint1_linear_3_4147)"/>
<path d="M2.20242 61.9814C0.964703 61.4576 0.356333 59.9489 1.2584 57.7278C1.82481 56.3867 2.7059 55.9258 2.95764 55.3181C3.10449 54.9619 3.06253 54.6057 2.83177 54.3333L5.37014 55.3809C3.44014 55.1085 1.97166 56.4496 1.38427 57.8745C0.901768 59.0688 1.02764 60.3051 2.01362 60.7242C4.27927 61.5833 5.64285 55.2343 8.47492 56.4286C9.73362 56.9525 10.321 58.4612 9.41894 60.6823C8.81057 62.17 7.97144 62.5472 7.69872 63.2177C7.55188 63.5739 7.59383 63.9301 7.82459 64.2025L5.28622 63.1548C7.25818 63.4063 8.70568 62.0443 9.29307 60.6194C9.79655 59.4041 9.67068 58.1259 8.70568 57.7068C6.41905 56.6801 5.05546 63.1758 2.20242 61.9814Z" fill="url(#paint2_linear_3_4147)"/>
<path d="M12.9432 52.6153C13.0481 52.2381 12.9432 51.7981 12.6705 51.3161L8.20215 44.4014L8.28606 44.2756L16.4886 45.1138C17.055 45.1347 17.4955 45.03 17.7682 44.7785L16.5305 46.7901C16.5935 46.4967 16.3207 46.3291 15.7963 46.2243L14.4327 46.0986L11.9992 50.038L12.7544 51.1904C13.0691 51.6305 13.3418 51.7981 13.5726 51.6095L12.9432 52.6153ZM11.9363 49.9122L14.2858 46.0777L9.10421 45.5329L11.9363 49.9122Z" fill="url(#paint3_linear_3_4147)"/>
<path d="M15.5656 32.2902L15.7963 32.0387C16.0061 32.3111 16.3417 32.2273 16.5096 32.0178C16.6774 31.8082 16.7194 31.4939 16.4047 31.3263L16.6354 31.0539C16.6774 31.0748 16.7403 31.1167 16.7613 31.1377C17.0131 31.3472 16.8662 31.7873 16.5935 32.1016C16.3208 32.4159 15.9222 32.6254 15.6704 32.4159C15.6495 32.374 15.5865 32.3321 15.5656 32.2902ZM16.8242 32.3111C17.8732 31.0958 18.8382 30.9701 19.2997 30.4253C19.5514 30.1319 19.6353 29.7757 19.4885 29.4404L21.5653 31.2215C19.929 30.5091 18.1249 31.0539 17.1389 32.2273C14.3069 35.6218 20.5164 40.9232 23.4324 37.6125C23.9778 37.0048 24.3135 36.1876 24.3345 35.3075L21.859 33.1912L20.0129 35.3494L19.9081 35.2656L22.9499 31.7244C22.8031 32.0387 22.9499 32.374 23.3065 32.7092L25.8449 34.8884L24.6701 35.6009C24.3974 36.1666 24.2506 36.9838 23.4114 37.9477C19.5304 42.348 13.0062 36.7533 16.8242 32.3111Z" fill="url(#paint4_linear_3_4147)"/>
<path d="M27.0196 22.3157C26.8308 22.5881 26.9147 22.9443 27.2084 23.3424L31.9075 28.9371L34.4668 26.7998C35.0333 26.2131 35.327 25.6264 35.306 24.9349L35.7465 25.8988L30.5649 30.2362C30.7537 29.9429 30.6698 29.5867 30.3761 29.1886L26.1804 24.2015C25.8448 23.8244 25.5091 23.6986 25.1945 23.8453L27.0196 22.3157Z" fill="url(#paint5_linear_3_4147)"/>
<path d="M38.285 14.0601C38.0543 14.3115 38.0962 14.6677 38.327 15.1078L41.8514 20.5977C42.145 20.9958 42.4597 21.1844 42.7954 21.0796L40.8024 22.3578C41.0332 22.0854 40.9912 21.7292 40.7395 21.3101L37.2152 15.8202C36.9215 15.4221 36.6068 15.2335 36.2921 15.3382L38.285 14.0601Z" fill="url(#paint6_linear_3_4147)"/>
<path d="M48.3126 16.8469L45.5435 10.9379C45.3127 10.4979 45.019 10.2884 44.6833 10.3303L46.8231 9.32449C46.5714 9.55498 46.5504 9.9112 46.7392 10.3722L48.858 14.8773L50.0748 8.80064C50.1797 8.21393 50.0957 7.87867 49.823 7.92058L50.9139 7.39673C50.5992 7.64818 50.3685 8.10916 50.2216 8.71682L49.6552 11.5246L53.8089 14.2277C54.3333 14.542 54.7949 14.6677 55.1935 14.6049L53.0537 15.6107C53.2635 15.4011 53.0956 15.1287 52.6341 14.7935L49.4244 12.719L48.9419 15.0868L49.5083 16.2812C49.7601 16.7212 50.0328 16.9308 50.3685 16.8888L48.2287 17.8946C48.4804 17.6641 48.5014 17.3079 48.3126 16.8469Z" fill="url(#paint7_linear_3_4147)"/>
<path d="M60.6059 3.96045C60.3122 4.14903 60.2492 4.4843 60.3541 4.98719L62.389 12.0067L65.5987 11.0848C66.3539 10.7705 66.8574 10.3723 67.1301 9.72277L67.1511 10.7914L60.6688 12.6773C60.9625 12.4887 61.0254 12.1325 60.9206 11.6505L59.1164 5.38531C58.9486 4.90338 58.6969 4.65193 58.3612 4.65193L60.6059 3.96045Z" fill="url(#paint8_linear_3_4147)"/>
<path d="M74.2838 0.942871C73.9691 1.08955 73.8642 1.42481 73.9062 1.9277L74.9131 8.36055C75.018 8.84249 75.2278 9.13585 75.5634 9.17775L73.2139 9.53397C73.5286 9.38729 73.6334 9.05203 73.5915 8.54914L72.5845 2.11629C72.4796 1.63435 72.2699 1.341 71.9342 1.29909L74.2838 0.942871Z" fill="url(#paint9_linear_3_4147)"/>
<path d="M95.5974 0.356216C98.849 0.628617 98.9539 3.68789 96.3946 4.14887C100.276 4.48413 99.898 9.09399 95.996 8.75873L90.7095 8.3187C91.0451 8.23488 91.2339 7.94153 91.2969 7.43863L91.8423 0.942925C91.8633 0.440032 91.7164 0.104769 91.4018 0L95.5974 0.356216ZM92.5556 8.33965L95.8072 8.61205C98.1777 8.82159 98.5344 4.46318 96.1848 4.25364L92.9122 3.98124L92.5556 8.33965ZM92.9332 3.85552L95.3666 4.0441C97.2127 4.10696 97.4855 0.649571 95.5974 0.48194L93.2269 0.272401L92.9332 3.85552Z" fill="url(#paint10_linear_3_4147)"/>
<path d="M105.311 9.2406L106.884 2.91253C106.989 2.43059 106.884 2.07437 106.59 1.90674L112.884 3.45733L112.779 4.40025C112.527 3.79259 112.191 3.45733 111.373 3.22683L108.352 2.47249L107.492 5.95084L109.863 6.53755C110.303 6.64232 110.723 6.72614 111.205 6.36992L110.933 7.43857C110.681 6.91472 110.261 6.76804 109.821 6.66327L107.45 6.07656L106.401 10.3093L109.632 11.1055C110.45 11.2103 111.08 11.1055 111.646 10.6864L111.121 11.6084L104.555 9.97399C104.912 9.97399 105.164 9.72254 105.311 9.2406Z" fill="url(#paint11_linear_3_4147)"/>
<path d="M119.555 8.10937C120.1 6.87309 121.611 6.30733 123.834 7.22931C125.156 7.81602 125.617 8.69608 126.226 8.94753C126.582 9.0942 126.939 9.07325 127.212 8.8218L126.142 11.3363C126.436 9.40851 125.114 7.92078 123.708 7.33408C122.534 6.83118 121.275 6.93595 120.855 7.92078C119.974 10.1629 126.31 11.6087 125.072 14.4374C124.527 15.6947 123.016 16.2395 120.792 15.3175C119.324 14.7098 118.946 13.8507 118.296 13.5574C117.939 13.4107 117.583 13.4526 117.31 13.6831L118.38 11.1686C118.107 13.1174 119.45 14.5841 120.876 15.2127C122.093 15.7366 123.373 15.6318 123.792 14.647C124.799 12.384 118.317 10.9381 119.555 8.10937Z" fill="url(#paint12_linear_3_4147)"/>
<path d="M136.211 13.7667C135.876 13.6619 135.582 13.8505 135.288 14.2487L131.386 20.4301L134.219 22.2111C134.953 22.5674 135.582 22.6721 136.253 22.4416L135.477 23.1541L129.771 19.55C130.107 19.6338 130.421 19.4662 130.694 19.0471L134.177 13.5362C134.428 13.0962 134.449 12.74 134.219 12.4885L136.211 13.7667Z" fill="url(#paint13_linear_3_4147)"/>
<path d="M141.372 26.4438L145.652 21.5197C145.966 21.1215 146.05 20.7863 145.862 20.4929L150.749 24.7466L150.225 25.5428C150.267 24.8932 150.12 24.4323 149.512 23.8455L147.162 21.813L144.813 24.5161L146.659 26.1295C146.994 26.4229 147.351 26.6743 147.938 26.5905L147.225 27.4287C147.246 26.842 146.931 26.5276 146.596 26.2343L144.75 24.6208L141.876 27.9106L144.393 30.0898C145.064 30.5508 145.673 30.7603 146.365 30.6346L145.484 31.2213L140.365 26.8C140.68 26.9258 141.016 26.8 141.372 26.4438Z" fill="url(#paint14_linear_3_4147)"/>
<path d="M150.917 35.4539L156.036 31.1374L156.267 30.2573L157.462 31.6612C157.232 31.5146 157.022 31.787 156.854 32.3527L154.84 40.0218L159.791 35.852C160.148 35.4958 160.274 35.1605 160.148 34.8672L160.945 35.8101C160.672 35.6215 160.316 35.6844 159.917 35.9777L154.798 40.2942L154.588 41.1743L153.393 39.7704C153.623 39.8961 153.833 39.6447 154.022 39.0789L156.015 31.4098L151.064 35.5796C150.707 35.9358 150.561 36.2501 150.707 36.5644L149.931 35.6425C150.183 35.8311 150.54 35.7682 150.917 35.4539Z" fill="url(#paint15_linear_3_4147)"/>
<path d="M165.413 41.95L166.357 43.5424C166.126 43.3539 165.854 43.5005 165.539 43.9406L161.805 49.64L169.546 48.9905L170.133 50.0172C169.882 49.7867 169.525 49.7867 169.084 50.0172L163.462 53.307C163.043 53.5794 162.854 53.8937 162.938 54.2289L161.742 52.1755C161.994 52.4059 162.35 52.385 162.791 52.1545L167.7 49.2838L160.378 49.8915L160.294 49.7448L164.553 43.2281L159.329 46.3084C158.931 46.5808 158.742 46.8741 158.805 47.2094L158.197 46.1617C158.448 46.3922 158.805 46.3712 159.246 46.1617L164.763 42.9348L165.413 41.95Z" fill="url(#paint16_linear_3_4147)"/>
<path d="M166.504 59.949L172.609 57.6441C173.07 57.4555 173.301 57.1831 173.28 56.8269L175.567 62.8826L174.728 63.3436C175.084 62.7988 175.168 62.3168 174.895 61.5206L173.805 58.608L170.448 59.8652L171.308 62.1492C171.476 62.5683 171.644 62.9664 172.21 63.155L171.182 63.5531C171.476 63.0502 171.35 62.6311 171.203 62.2121L170.343 59.9281L166.252 61.4787L167.427 64.6008C167.805 65.3342 168.245 65.7952 168.917 66.0257L167.868 66.1304L165.476 59.8233C165.686 60.0538 166.043 60.0957 166.504 59.949Z" fill="url(#paint17_linear_3_4147)"/>
<path d="M29.5789 145.483C33.8165 150.365 27.523 155.834 23.2644 150.952L20.7261 148.039C21.0198 148.228 21.3764 148.144 21.754 147.83L26.6839 143.555C27.0405 143.22 27.1664 142.885 27.0196 142.57L29.5789 145.483ZM22.0477 149.317L23.4323 150.91C26.4322 154.367 32.5368 149.087 29.5369 145.63L28.1524 144.037L22.0477 149.317Z" fill="url(#paint18_linear_3_4147)"/>
<path d="M30.46 158.516C30.8166 158.663 31.2571 158.621 31.7816 158.412L39.2499 154.912L39.3757 155.017L37.4667 163.022C37.3618 163.587 37.4038 164.027 37.6345 164.342L35.7884 162.854C36.0821 162.959 36.2919 162.707 36.4388 162.204L36.7534 160.863L33.1662 157.93L31.9284 158.516C31.4459 158.768 31.2571 159.019 31.404 159.271L30.46 158.516ZM33.292 157.888L36.7954 160.738L38.0121 155.667L33.292 157.888Z" fill="url(#paint19_linear_3_4147)"/>
<path d="M44.4316 167.59L47.7252 161.785L47.6413 160.884L49.2566 161.806C48.9839 161.764 48.879 162.058 48.921 162.665L49.7181 170.544L52.9068 164.928C53.1166 164.488 53.1376 164.111 52.8859 163.881L53.9558 164.488C53.6201 164.405 53.3264 164.593 53.0537 165.012L49.7601 170.837L49.865 171.738L48.2497 170.816C48.5224 170.858 48.6273 170.544 48.5853 169.957L47.7881 162.1L44.5995 167.715C44.3897 168.176 44.3687 168.512 44.5995 168.763L43.5505 168.155C43.8442 168.197 44.1589 168.009 44.4316 167.59Z" fill="url(#paint20_linear_3_4147)"/>
<path d="M61.6337 167.568C61.298 167.527 61.0253 167.778 60.8155 168.239L58.5079 174.337C58.361 174.818 58.403 175.175 58.6757 175.384L56.452 174.546C56.7877 174.567 57.0604 174.337 57.2702 173.876L59.5778 167.778C59.7246 167.296 59.6827 166.94 59.41 166.751L61.6337 167.568Z" fill="url(#paint21_linear_3_4147)"/>
<path d="M66.9832 171.78C67.2769 170.46 68.6614 169.622 71.032 170.104C72.4375 170.439 73.0669 171.214 73.7172 171.34C74.0948 171.424 74.4305 171.319 74.6612 171.047L74.0738 173.708C73.9899 171.759 72.4165 170.544 70.9271 170.23C69.6684 169.957 68.4726 170.292 68.2419 171.34C67.8013 173.708 74.3046 173.938 73.6123 176.935C73.3186 178.255 71.934 179.093 69.5845 178.611C68.0111 178.276 67.5076 177.501 66.7944 177.354C66.4168 177.27 66.0811 177.375 65.8503 177.647L66.4377 174.965C66.5426 176.935 68.137 178.129 69.6474 178.464C70.9271 178.737 72.1648 178.402 72.4165 177.375C72.941 175.007 66.3119 174.798 66.9832 171.78Z" fill="url(#paint22_linear_3_4147)"/>
<path d="M80.8078 171.906L82.6539 171.948C82.3602 172.032 82.3602 172.346 82.57 172.849L85.444 179.01L88.9683 172.116L90.1431 172.137C89.8075 172.221 89.6396 172.535 89.5977 173.038L89.4299 179.554C89.4508 180.057 89.5977 180.372 89.9333 180.476L87.5628 180.414C87.8984 180.33 88.0663 180.015 88.1082 179.513L88.2551 173.834L84.9195 180.351H84.7517L81.4371 173.31L81.2903 179.345C81.3113 179.827 81.4581 180.162 81.7938 180.267L80.577 180.246C80.9127 180.162 81.0805 179.848 81.1225 179.345L81.2693 172.975L80.8078 171.906Z" fill="url(#paint23_linear_3_4147)"/>
<path d="M96.9821 179.952C97.3387 179.784 97.5904 179.428 97.7792 178.883L100.066 170.963L100.213 170.942L104.975 177.647C105.331 178.087 105.688 178.36 106.087 178.381L103.737 178.779C104.01 178.632 103.968 178.318 103.674 177.857L102.877 176.746L98.3037 177.521L97.9261 178.842C97.8002 179.365 97.8631 179.68 98.1568 179.743L96.9821 179.952ZM98.3666 177.396L102.814 176.641L99.7931 172.409L98.3666 177.396Z" fill="url(#paint24_linear_3_4147)"/>
<path d="M113.01 175.468L110.723 169.182L109.989 168.658L111.73 168.03C111.52 168.197 111.688 168.47 112.149 168.847L118.653 173.373L116.45 167.296C116.24 166.835 115.988 166.605 115.632 166.626L116.786 166.207C116.513 166.395 116.45 166.751 116.597 167.233L118.883 173.519L119.639 174.022L117.897 174.651C118.107 174.462 117.939 174.19 117.457 173.834L110.954 169.329L113.156 175.405C113.366 175.866 113.618 176.097 113.954 176.097L112.821 176.516C113.114 176.306 113.156 175.95 113.01 175.468Z" fill="url(#paint25_linear_3_4147)"/>
<path d="M124.254 162.519C124.002 162.77 124.023 163.105 124.254 163.566L127.862 169.915L130.757 168.26C131.428 167.778 131.806 167.275 131.932 166.584L132.184 167.61L126.31 170.942C126.54 170.691 126.54 170.334 126.31 169.894L123.079 164.237C122.806 163.818 122.513 163.629 122.177 163.713L124.254 162.519Z" fill="url(#paint26_linear_3_4147)"/>
<path d="M134.827 155.499C134.617 155.771 134.68 156.128 134.974 156.526L138.939 161.68C139.274 162.058 139.589 162.204 139.904 162.1L138.016 163.545C138.204 163.273 138.162 162.917 137.869 162.498L133.904 157.343C133.589 156.966 133.254 156.819 132.939 156.945L134.827 155.499Z" fill="url(#paint27_linear_3_4147)"/>
<path d="M142.4 148.375C143.512 147.201 144.477 147.138 144.98 146.615C145.253 146.342 145.337 145.986 145.211 145.651L147.183 147.536C145.589 146.74 143.764 147.18 142.715 148.312C139.715 151.56 145.61 157.175 148.694 154.011C149.26 153.425 149.638 152.628 149.722 151.769L147.351 149.527L145.4 151.581L145.295 151.497L148.526 148.123C148.379 148.438 148.484 148.773 148.82 149.129L151.232 151.434L150.015 152.083C149.722 152.649 149.512 153.445 148.631 154.347C144.561 158.558 138.351 152.628 142.4 148.375ZM141.141 148.312L141.372 148.06C141.561 148.354 141.897 148.291 142.085 148.081C142.274 147.893 142.316 147.578 142.023 147.39L142.274 147.117C142.316 147.138 142.379 147.18 142.4 147.201C142.631 147.432 142.463 147.851 142.19 148.144C141.897 148.438 141.498 148.626 141.246 148.417C141.225 148.396 141.183 148.333 141.141 148.312Z" fill="url(#paint28_linear_3_4147)"/>
<path d="M150.498 138.61C150.393 138.925 150.561 139.239 150.938 139.553L156.288 143.283C156.707 143.535 157.064 143.597 157.337 143.388L155.973 145.337C156.078 145.001 155.91 144.687 155.511 144.394L150.162 140.664C149.742 140.391 149.386 140.35 149.113 140.58L150.498 138.61Z" fill="url(#paint29_linear_3_4147)"/>
<defs>
<linearGradient id="paint0_linear_3_4147" x1="10.7201" y1="13.0437" x2="152.959" y2="203.201" gradientUnits="userSpaceOnUse">
<stop stop-color="#358C9C"/>
<stop offset="1" stop-color="#365964"/>
</linearGradient>
<linearGradient id="paint1_linear_3_4147" x1="29.6704" y1="-1.13137" x2="171.91" y2="189.026" gradientUnits="userSpaceOnUse">
<stop stop-color="#358C9C"/>
<stop offset="1" stop-color="#365964"/>
</linearGradient>
<linearGradient id="paint2_linear_3_4147" x1="-14.8911" y1="32.2009" x2="127.348" y2="222.358" gradientUnits="userSpaceOnUse">
<stop stop-color="#358C9C"/>
<stop offset="1" stop-color="#365964"/>
</linearGradient>
<linearGradient id="paint3_linear_3_4147" x1="-3.43508" y1="23.6319" x2="138.804" y2="213.789" gradientUnits="userSpaceOnUse">
<stop stop-color="#358C9C"/>
<stop offset="1" stop-color="#365964"/>
</linearGradient>
<linearGradient id="paint4_linear_3_4147" x1="6.25428" y1="16.3843" x2="148.494" y2="206.542" gradientUnits="userSpaceOnUse">
<stop stop-color="#358C9C"/>
<stop offset="1" stop-color="#365964"/>
</linearGradient>
<linearGradient id="paint5_linear_3_4147" x1="17.7902" y1="7.75489" x2="160.029" y2="197.912" gradientUnits="userSpaceOnUse">
<stop stop-color="#358C9C"/>
<stop offset="1" stop-color="#365964"/>
</linearGradient>
<linearGradient id="paint6_linear_3_4147" x1="26.7141" y1="1.08004" x2="168.953" y2="191.237" gradientUnits="userSpaceOnUse">
<stop stop-color="#358C9C"/>
<stop offset="1" stop-color="#365964"/>
</linearGradient>
<linearGradient id="paint7_linear_3_4147" x1="35.7921" y1="-5.71042" x2="178.031" y2="184.447" gradientUnits="userSpaceOnUse">
<stop stop-color="#358C9C"/>
<stop offset="1" stop-color="#365964"/>
</linearGradient>
<linearGradient id="paint8_linear_3_4147" x1="45.6892" y1="-13.1134" x2="187.929" y2="177.044" gradientUnits="userSpaceOnUse">
<stop stop-color="#358C9C"/>
<stop offset="1" stop-color="#365964"/>
</linearGradient>
<linearGradient id="paint9_linear_3_4147" x1="54.8409" y1="-19.9591" x2="197.08" y2="170.198" gradientUnits="userSpaceOnUse">
<stop stop-color="#358C9C"/>
<stop offset="1" stop-color="#365964"/>
</linearGradient>
<linearGradient id="paint10_linear_3_4147" x1="68.1842" y1="-29.9401" x2="210.423" y2="160.217" gradientUnits="userSpaceOnUse">
<stop stop-color="#358C9C"/>
<stop offset="1" stop-color="#365964"/>
</linearGradient>
<linearGradient id="paint11_linear_3_4147" x1="76.5437" y1="-36.193" x2="218.783" y2="153.964" gradientUnits="userSpaceOnUse">
<stop stop-color="#358C9C"/>
<stop offset="1" stop-color="#365964"/>
</linearGradient>
<linearGradient id="paint12_linear_3_4147" x1="83.0475" y1="-41.0577" x2="225.287" y2="149.099" gradientUnits="userSpaceOnUse">
<stop stop-color="#358C9C"/>
<stop offset="1" stop-color="#365964"/>
</linearGradient>
<linearGradient id="paint13_linear_3_4147" x1="87.3086" y1="-44.2453" x2="229.548" y2="145.912" gradientUnits="userSpaceOnUse">
<stop stop-color="#358C9C"/>
<stop offset="1" stop-color="#365964"/>
</linearGradient>
<linearGradient id="paint14_linear_3_4147" x1="90.9971" y1="-47.0042" x2="233.236" y2="143.153" gradientUnits="userSpaceOnUse">
<stop stop-color="#358C9C"/>
<stop offset="1" stop-color="#365964"/>
</linearGradient>
<linearGradient id="paint15_linear_3_4147" x1="92.5292" y1="-48.1504" x2="234.769" y2="142.007" gradientUnits="userSpaceOnUse">
<stop stop-color="#358C9C"/>
<stop offset="1" stop-color="#365964"/>
</linearGradient>
<linearGradient id="paint16_linear_3_4147" x1="92.2002" y1="-47.904" x2="234.439" y2="142.253" gradientUnits="userSpaceOnUse">
<stop stop-color="#358C9C"/>
<stop offset="1" stop-color="#365964"/>
</linearGradient>
<linearGradient id="paint17_linear_3_4147" x1="89.8755" y1="-46.1653" x2="232.115" y2="143.992" gradientUnits="userSpaceOnUse">
<stop stop-color="#358C9C"/>
<stop offset="1" stop-color="#365964"/>
</linearGradient>
<linearGradient id="paint18_linear_3_4147" x1="-44.248" y1="54.1602" x2="97.9913" y2="244.317" gradientUnits="userSpaceOnUse">
<stop stop-color="#358C9C"/>
<stop offset="1" stop-color="#365964"/>
</linearGradient>
<linearGradient id="paint19_linear_3_4147" x1="-42.8092" y1="53.0841" x2="99.4301" y2="243.241" gradientUnits="userSpaceOnUse">
<stop stop-color="#358C9C"/>
<stop offset="1" stop-color="#365964"/>
</linearGradient>
<linearGradient id="paint20_linear_3_4147" x1="-38.5406" y1="49.8914" x2="103.699" y2="240.049" gradientUnits="userSpaceOnUse">
<stop stop-color="#358C9C"/>
<stop offset="1" stop-color="#365964"/>
</linearGradient>
<linearGradient id="paint21_linear_3_4147" x1="-34.218" y1="46.6577" x2="108.021" y2="236.815" gradientUnits="userSpaceOnUse">
<stop stop-color="#358C9C"/>
<stop offset="1" stop-color="#365964"/>
</linearGradient>
<linearGradient id="paint22_linear_3_4147" x1="-28.6418" y1="42.4867" x2="113.598" y2="232.644" gradientUnits="userSpaceOnUse">
<stop stop-color="#358C9C"/>
<stop offset="1" stop-color="#365964"/>
</linearGradient>
<linearGradient id="paint23_linear_3_4147" x1="-19.8044" y1="35.8767" x2="122.435" y2="226.034" gradientUnits="userSpaceOnUse">
<stop stop-color="#358C9C"/>
<stop offset="1" stop-color="#365964"/>
</linearGradient>
<linearGradient id="paint24_linear_3_4147" x1="-10.8984" y1="29.2144" x2="131.341" y2="219.371" gradientUnits="userSpaceOnUse">
<stop stop-color="#358C9C"/>
<stop offset="1" stop-color="#365964"/>
</linearGradient>
<linearGradient id="paint25_linear_3_4147" x1="1.36137" y1="20.0442" x2="143.601" y2="210.201" gradientUnits="userSpaceOnUse">
<stop stop-color="#358C9C"/>
<stop offset="1" stop-color="#365964"/>
</linearGradient>
<linearGradient id="paint26_linear_3_4147" x1="11.7751" y1="12.2545" x2="154.015" y2="202.412" gradientUnits="userSpaceOnUse">
<stop stop-color="#358C9C"/>
<stop offset="1" stop-color="#365964"/>
</linearGradient>
<linearGradient id="paint27_linear_3_4147" x1="20.8971" y1="5.43117" x2="163.137" y2="195.588" gradientUnits="userSpaceOnUse">
<stop stop-color="#358C9C"/>
<stop offset="1" stop-color="#365964"/>
</linearGradient>
<linearGradient id="paint28_linear_3_4147" x1="30.7015" y1="-1.90246" x2="172.941" y2="188.255" gradientUnits="userSpaceOnUse">
<stop stop-color="#358C9C"/>
<stop offset="1" stop-color="#365964"/>
</linearGradient>
<linearGradient id="paint29_linear_3_4147" x1="40.0912" y1="-8.92586" x2="182.33" y2="181.231" gradientUnits="userSpaceOnUse">
<stop stop-color="#358C9C"/>
<stop offset="1" stop-color="#365964"/>
</linearGradient>
</defs>
</svg>
